# xmcd CD database file
#
# Track frame offsets:
#	182
#	12525
#	31182
#	41147
#	53287
#	73260
#	87310
#	100305
#	118495
#	134845
#	145152
#	154662
#	165427
#	186485
#
# Disc length: 2718 seconds
#
# Revision: 3
# Processed by: cddbd v1.5.1PL0 Copyright (c) Steve Scherf et al.
# Submitted via: CDex 1.51
#
DISCID=ca0a9c0e
DTITLE=Nina Simone - Don't Let Me Be Misunterstood
DYEAR=1990
DGENRE=Blues
TTITLE0=Don't let me be misunterstood
TTITLE1=I loves you, Porgy
TTITLE2=Ain't got no - I got life
TTITLE3=Trouble in my mind
TTITLE4=Near to you
TTITLE5=Central Park Blues
TTITLE6=Something to live for
TTITLE7=Mood Indigo
TTITLE8=Ne me quitte pas
TTITLE9=Peace of Mind
TTITLE10=Take care of business
TTITLE11=You better know it
TTITLE12=Blue Prelude
TTITLE13=For all we know
EXTD=YEAR: 1990
EXTT0=
EXTT1=
EXTT2=
EXTT3=
EXTT4=
EXTT5=
EXTT6=
EXTT7=
EXTT8=
EXTT9=
EXTT10=
EXTT11=
EXTT12=
EXTT13=
PLAYORDER=
